# xmcd CD database file
#
# Track frame offsets:
#	150
#	18910
#	35145
#	50228
#	69669
#	86393
#	107477
#	128248
#	146131
#	160463
#	178649
#	194125
#	213786
#	231842
#
# Disc length: 3268 seconds
#
# Revision: 0
# Processed by: cddbd v1.5.2PL0 Copyright (c) Steve Scherf et al.
# Submitted via: CDex 1.70beta2
#
DISCID=cf0cc20e
DTITLE=Great Country Hits - Breathe
DYEAR=2000
DGENRE=Country
TTITLE0=breathe
TTITLE1=couldnt last a moment
TTITLE2=the best day
TTITLE3=goodbye earl
TTITLE4=buy me a rose
TTITLE5=loves the only house
TTITLE6=my best friend
TTITLE7=i hope you dance
TTITLE8=the way you love me
TTITLE9=he didnt have to be
TTITLE10=how do you like me now
TTITLE11=cowboy take me away
TTITLE12=been there
TTITLE13=lessons learned
EXTD=YEAR: 2000
EXTT0=
EXTT1=
EXTT2=
EXTT3=
EXTT4=
EXTT5=
EXTT6=
EXTT7=
EXTT8=
EXTT9=
EXTT10=
EXTT11=
EXTT12=
EXTT13=
PLAYORDER=
